<svg width="21" height="23" viewBox="0 0 21 23" fill="none" xmlns="http://www.w3.org/2000/svg">
<path d="M6.94792 13.0729L14.0625 17.2187M14.0521 5.78123L6.94792 9.92706M19.875 4.20831C19.875 5.9342 18.4759 7.33331 16.75 7.33331C15.0241 7.33331 13.625 5.9342 13.625 4.20831C13.625 2.48242 15.0241 1.08331 16.75 1.08331C18.4759 1.08331 19.875 2.48242 19.875 4.20831ZM7.375 11.5C7.375 13.2259 5.97589 14.625 4.25 14.625C2.52411 14.625 1.125 13.2259 1.125 11.5C1.125 9.77409 2.52411 8.37498 4.25 8.37498C5.97589 8.37498 7.375 9.77409 7.375 11.5ZM19.875 18.7916C19.875 20.5175 18.4759 21.9166 16.75 21.9166C15.0241 21.9166 13.625 20.5175 13.625 18.7916C13.625 17.0658 15.0241 15.6666 16.75 15.6666C18.4759 15.6666 19.875 17.0658 19.875 18.7916Z" stroke="#1E1E1E" stroke-width="2" stroke-linecap="round" stroke-linejoin="round"/>
</svg>
